# Blender 3.6.4
# www.blender.org
mtllib house.mtl
o Cube
v 1.000000 1.200127 -1.000000
v 1.000000 0.339975 -1.000000
v 1.000000 1.200127 1.000000
v 1.000000 0.339975 1.000000
v -1.000000 1.200127 -1.000000
v -1.000000 0.339975 -1.000000
v -1.000000 1.200127 1.000000
v -1.000000 0.339975 1.000000
v 1.000000 2.513338 1.000000
v 0.000000 3.312971 0.000000
v -1.000000 2.513338 1.000000
v 1.000000 2.513338 -1.000000
v -1.000000 2.513338 -1.000000
vn -1.0000 -0.0000 -0.0000
vn -0.0000 -0.0000 1.0000
vn -0.0000 -1.0000 -0.0000
vn 1.0000 -0.0000 -0.0000
vn -0.0000 -0.0000 -1.0000
vn -0.0000 0.7810 0.6245
vn 0.6245 0.7810 -0.0000
vn -0.6245 0.7810 -0.0000
vn -0.0000 0.7810 -0.6245
vt 0.625000 0.250000
vt 0.625000 0.000000
vt 0.375000 0.750000
vt 0.625000 0.750000
vt 0.625000 1.000000
vt 0.375000 1.000000
vt 0.375000 0.000000
vt 0.375000 0.250000
vt 0.125000 0.500000
vt 0.375000 0.500000
vt 0.125000 0.750000
vt 0.625000 0.500000
vt 0.748889 0.623889
vt 0.875000 0.750000
vt 0.751111 0.623889
vt 0.748889 0.626111
vt 0.875000 0.500000
vt 0.751111 0.626111
s 0
usemtl Material
f 5/1/1 7/2/1 11/2/1 13/1/1
f 4/3/2 3/4/2 7/5/2 8/6/2
f 8/7/1 7/2/1 5/1/1 6/8/1
f 6/9/3 2/10/3 4/3/3 8/11/3
f 2/10/4 1/12/4 3/4/4 4/3/4
f 6/8/5 5/1/5 1/12/5 2/10/5
f 3/4/4 1/12/4 12/12/4 9/4/4
f 1/12/5 5/1/5 13/1/5 12/12/5
f 7/5/2 3/4/2 9/4/2 11/5/2
usemtl Roof
f 10/13/6 11/14/6 9/4/6
f 10/15/7 9/4/7 12/12/7
f 10/16/8 13/17/8 11/14/8
f 10/18/9 12/12/9 13/17/9
